<svg fill="none" style="display: none;" xmlns="http://www.w3.org/2000/svg">
  <symbol id="chat" viewBox="0 0 24 24">
    <path d="M5 18v3.766l1.515-.909L11.277 18H16c1.103 0 2-.897 2-2V8c0-1.103-.897-2-2-2H4c-1.103 0-2 .897-2 2v8c0 1.103.897 2 2 2h1zM4 8h12v8h-5.277L7 18.234V16H4V8z">
    </path>
    <path d="M20 2H8c-1.103 0-2 .897-2 2h12c1.103 0 2 .897 2 2v8c1.103 0 2-.897 2-2V4c0-1.103-.897-2-2-2z">
    </path>
  </symbol>
  <symbol id="ghost" viewBox="0 0 24 24"><path d="M12 2c-4.963 0-9 4.038-9 9v8h.051c.245 1.691 1.69 3 3.449 3 1.174 0 2.074-.417 2.672-1.174a3.99 3.99 0 0 0 5.668-.014c.601.762 1.504 1.188 2.66 1.188 1.93 0 3.5-1.57 3.5-3.5V11c0-4.962-4.037-9-9-9zm7 16.5c0 .827-.673 1.5-1.5 1.5-.449 0-1.5 0-1.5-2v-1h-2v1c0 1.103-.897 2-2 2s-2-.897-2-2v-1H8v1c0 1.845-.774 2-1.5 2-.827 0-1.5-.673-1.5-1.5V11c0-3.86 3.141-7 7-7s7 3.14 7 7v7.5z"></path><circle cx="9" cy="10" r="2"></circle><circle cx="15" cy="10" r="2"></circle></symbol>
  <symbol id="focus" viewBox="0 0 24 24"><path d="m20.145 8.27 1.563-1.563-1.414-1.414L18.586 7c-1.05-.63-2.274-1-3.586-1-3.859 0-7 3.14-7 7s3.141 7 7 7 7-3.14 7-7a6.966 6.966 0 0 0-1.855-4.73zM15 18c-2.757 0-5-2.243-5-5s2.243-5 5-5 5 2.243 5 5-2.243 5-5 5z"></path><path d="M14 10h2v4h-2zm-1-7h4v2h-4zM3 8h4v2H3zm0 8h4v2H3zm-1-4h3.99v2H2z"></path></symbol>
</svg>
